<?xml version="1.0" standalone="no"?>
<!DOCTYPE svg PUBLIC "-//W3C//DTD SVG 20010904//EN"
 "http://www.w3.org/TR/2001/REC-SVG-20010904/DTD/svg10.dtd">
<svg version="1.0" xmlns="http://www.w3.org/2000/svg"
 width="48.000000pt" height="48.000000pt" viewBox="0 0 48.000000 48.000000"
 preserveAspectRatio="xMidYMid meet">

<g transform="translate(0.000000,48.000000) scale(0.100000,-0.100000)"
fill="#000000" stroke="none">
<path d="M126 437 c-47 -26 -77 -80 -84 -147 -12 -124 69 -209 199 -210 53 0
57 -2 80 -38 19 -28 32 -38 57 -40 37 -4 62 11 62 37 0 9 -29 59 -64 112 -67
100 -106 134 -167 145 -99 19 -114 61 -46 124 34 32 38 40 22 40 -11 0 -38
-10 -59 -23z"/>
<path d="M160 380 c0 -13 7 -20 20 -20 13 0 20 7 20 20 0 13 -7 20 -20 20 -13
0 -20 -7 -20 -20z"/>
</g>
</svg>
